# WaveFront *.obj file (generated by Autodesk ATF)

mtllib OJB_Solid1.mtl

o Solid1

v -24.037864 -2.190877 2.526481
v -24.037864 0.000000 2.526481
v -22.987294 -2.190877 -7.469025
v -22.987294 0.000000 -7.469025
v -20.932069 -2.190877 12.085136
v -20.932069 0.000000 12.085136
v -17.962012 -2.190877 -16.173068
v -17.962012 0.000000 -16.173068
v -14.206929 -2.190877 19.554161
v -14.206929 0.000000 19.554161
v -9.830935 -2.190877 -22.080641
v -9.830935 0.000000 -22.080641
v -7.209063 0.000000 -1.271152
v -7.209063 12.531645 -1.271152
v -6.339543 0.000000 3.660137
v -6.339543 12.531645 3.660137
v -5.025282 -2.190877 23.642094
v -5.025282 0.000000 23.642094
v -4.705382 0.000000 -5.607656
v -4.705382 12.531645 -5.607656
v -2.929491 0.000000 -0.516548
v -2.929491 12.531645 -0.516548
v -2.576151 0.000000 1.487342
v -2.576151 12.531645 1.487342
v -2.503681 0.000000 6.878808
v -2.503681 12.531645 6.878808
v -1.912090 0.000000 -2.278740
v -1.912090 12.531645 -2.278740
v -1.017402 0.000000 2.795288
v -1.017402 12.531645 2.795288
v 0.000000 -2.190877 -24.170272
v 0.000000 0.000000 -24.170272
v 0.000000 0.000000 -7.320274
v 0.000000 0.000000 -2.974683
v 0.000000 12.531645 -7.320274
v 0.000000 12.531645 -2.974683
v 1.017402 0.000000 2.795288
v 1.017402 12.531645 2.795288
v 1.912090 0.000000 -2.278740
v 1.912090 12.531645 -2.278740
v 2.503681 0.000000 6.878808
v 2.503681 12.531645 6.878808
v 2.576151 0.000000 1.487342
v 2.576151 12.531645 1.487342
v 2.929491 0.000000 -0.516548
v 2.929491 12.531645 -0.516548
v 4.705382 0.000000 -5.607656
v 4.705382 12.531645 -5.607656
v 5.025282 -2.190877 23.642094
v 5.025282 0.000000 23.642094
v 6.339543 0.000000 3.660137
v 6.339543 12.531645 3.660137
v 7.209063 0.000000 -1.271152
v 7.209063 12.531645 -1.271152
v 9.830935 -2.190877 -22.080641
v 9.830935 0.000000 -22.080641
v 14.206929 -2.190877 19.554161
v 14.206929 0.000000 19.554161
v 17.962012 -2.190877 -16.173068
v 17.962012 0.000000 -16.173068
v 20.932069 -2.190877 12.085136
v 20.932069 0.000000 12.085136
v 22.987294 -2.190877 -7.469025
v 22.987294 0.000000 -7.469025
v 24.037864 -2.190877 2.526481
v 24.037864 0.000000 2.526481
vt 0.434559 0.000000 0.000000
vt 0.504153 0.191209 0.000000
vt 0.680373 0.292949 0.000000
vt 0.880762 0.257615 0.000000
vt 1.011556 0.101740 0.000000
vt 1.011556 -0.101740 0.000000
vt 0.880762 -0.257615 0.000000
vt 0.680373 -0.292949 0.000000
vt 0.504153 -0.191209 0.000000
vt 0.000000 0.000000 0.000000
vt 0.171262 -0.470538 0.000000
vt 0.604912 -0.720906 0.000000
vt 1.098041 -0.633954 0.000000
vt 1.419908 -0.250368 0.000000
vt 1.419908 0.250368 0.000000
vt 1.098041 0.633954 0.000000
vt 0.604912 0.720906 0.000000
vt 0.171262 0.470538 0.000000
vt 0.626582 0.000000 0.000000
vt 0.626582 0.511052 0.000000
vt 0.626582 1.022103 0.000000
vt 0.626582 1.533155 0.000000
vt 0.626582 2.044206 0.000000
vt 0.626582 -2.044206 0.000000
vt 0.626582 -1.533155 0.000000
vt 0.626582 -1.022103 0.000000
vt 0.626582 -0.511052 0.000000
vt -0.626582 0.000000 0.000000
vt -0.626582 -0.511052 0.000000
vt -0.626582 -1.022103 0.000000
vt -0.626582 -1.533155 0.000000
vt -0.626582 2.555258 0.000000
vt -0.626582 2.044206 0.000000
vt -0.626582 1.533155 0.000000
vt -0.626582 1.022103 0.000000
vt -0.626582 0.511052 0.000000
vt -0.626582 -2.044206 0.000000
vt -0.626582 -2.044206 0.000000
vt 0.626582 2.555258 0.000000
vt 0.626582 2.555258 0.000000
vt 0.626582 0.000000 0.000000
vt 0.626582 0.207672 0.000000
vt 0.626582 0.415344 0.000000
vt 0.626582 0.623016 0.000000
vt 0.626582 0.830688 0.000000
vt 0.626582 -0.830688 0.000000
vt 0.626582 -0.623016 0.000000
vt 0.626582 -0.415344 0.000000
vt 0.626582 -0.207672 0.000000
vt -0.626582 0.000000 0.000000
vt -0.626582 -0.207672 0.000000
vt -0.626582 -0.415344 0.000000
vt -0.626582 -0.623016 0.000000
vt -0.626582 1.038360 0.000000
vt -0.626582 0.830688 0.000000
vt -0.626582 0.623016 0.000000
vt -0.626582 0.415344 0.000000
vt -0.626582 0.207672 0.000000
vt -0.626582 -0.830688 0.000000
vt -0.626582 -0.830688 0.000000
vt 0.626582 1.038360 0.000000
vt 0.626582 1.038360 0.000000
vt 2.119559 0.000000 0.000000
vt 2.189153 -0.191209 0.000000
vt 2.365372 -0.292949 0.000000
vt 2.565761 -0.257615 0.000000
vt 2.696556 -0.101740 0.000000
vt 2.696556 0.101740 0.000000
vt 2.565761 0.257615 0.000000
vt 2.365372 0.292949 0.000000
vt 2.189153 0.191209 0.000000
vt -0.109544 0.000000 0.000000
vt -0.109544 -1.012442 0.000000
vt -0.109544 -2.024884 0.000000
vt -0.109544 -3.037326 0.000000
vt -0.109544 -4.049768 0.000000
vt -0.109544 -5.062210 0.000000
vt -0.109544 -6.074652 0.000000
vt -0.109544 -7.087094 0.000000
vt -0.109544 7.087094 0.000000
vt -0.109544 6.074652 0.000000
vt -0.109544 5.062210 0.000000
vt -0.109544 4.049768 0.000000
vt -0.109544 3.037326 0.000000
vt -0.109544 2.024884 0.000000
vt -0.109544 1.012442 0.000000
vt 0.109544 0.000000 0.000000
vt 0.109544 1.012442 0.000000
vt 0.109544 2.024884 0.000000
vt 0.109544 3.037326 0.000000
vt 0.109544 4.049768 0.000000
vt 0.109544 5.062210 0.000000
vt 0.109544 6.074652 0.000000
vt 0.109544 -8.099536 0.000000
vt 0.109544 -7.087094 0.000000
vt 0.109544 -6.074652 0.000000
vt 0.109544 -5.062210 0.000000
vt 0.109544 -4.049768 0.000000
vt 0.109544 -3.037326 0.000000
vt 0.109544 -2.024884 0.000000
vt 0.109544 -1.012442 0.000000
vt 0.109544 7.087094 0.000000
vt 0.109544 7.087094 0.000000
vt -0.109544 -8.099536 0.000000
vt -0.109544 -8.099536 0.000000
vt 2.417027 0.000000 0.000000
vt 2.208064 0.983094 0.000000
vt 1.617307 1.796201 0.000000
vt 0.746902 2.298729 0.000000
vt -0.252648 2.403786 0.000000
vt -1.208514 2.093207 0.000000
vt -1.955416 1.420693 0.000000
vt -2.364209 0.502528 0.000000
vt -2.364209 -0.502528 0.000000
vt -1.955416 -1.420693 0.000000
vt -1.208514 -2.093207 0.000000
vt -0.252648 -2.403786 0.000000
vt 0.746902 -2.298729 0.000000
vt 1.617307 -1.796201 0.000000
vt 2.208064 -0.983094 0.000000
vt 1.685000 0.000000 0.000000
vt 1.856262 0.470538 0.000000
vt 2.289912 0.720906 0.000000
vt 2.783041 0.633954 0.000000
vt 3.104908 0.250368 0.000000
vt 3.104908 -0.250368 0.000000
vt 2.783041 -0.633954 0.000000
vt 2.289912 -0.720906 0.000000
vt 1.856262 -0.470538 0.000000
vt 0.000000 0.000000 0.000000
vt 0.208963 -0.983094 0.000000
vt 0.799720 -1.796201 0.000000
vt 1.670125 -2.298729 0.000000
vt 2.669675 -2.403786 0.000000
vt 3.625541 -2.093207 0.000000
vt 4.372443 -1.420693 0.000000
vt 4.781237 -0.502528 0.000000
vt 4.781237 0.502528 0.000000
vt 4.372443 1.420693 0.000000
vt 3.625541 2.093207 0.000000
vt 2.669675 2.403786 0.000000
vt 1.670125 2.298729 0.000000
vt 0.799720 1.796201 0.000000
vt 0.208963 0.983094 0.000000
vn 0.000000 0.100000 0.000000
vn 0.000000 0.100000 0.000000
vn 0.000000 0.100000 0.000000
vn 0.000000 0.100000 0.000000
vn 0.000000 0.100000 0.000000
vn 0.000000 0.100000 0.000000
vn 0.000000 0.100000 0.000000
vn 0.000000 0.100000 0.000000
vn 0.000000 0.100000 0.000000
vn 0.000000 0.100000 0.000000
vn 0.000000 0.100000 0.000000
vn 0.000000 0.100000 0.000000
vn 0.000000 0.100000 0.000000
vn 0.000000 0.100000 0.000000
vn 0.000000 0.100000 0.000000
vn 0.000000 0.100000 0.000000
vn 0.000000 0.100000 0.000000
vn 0.000000 0.100000 0.000000
vn 0.000000 0.000000 -0.100000
vn 0.064279 0.000000 -0.076604
vn 0.098481 0.000000 -0.017365
vn 0.086603 0.000000 0.050000
vn 0.034202 0.000000 0.093969
vn -0.034202 0.000000 0.093969
vn -0.086603 0.000000 0.050000
vn -0.098481 0.000000 -0.017365
vn -0.064279 0.000000 -0.076604
vn 0.000000 0.000000 -0.100000
vn -0.064279 0.000000 -0.076604
vn -0.098481 0.000000 -0.017365
vn -0.086603 0.000000 0.050000
vn -0.034202 0.000000 0.093969
vn 0.034202 0.000000 0.093969
vn 0.086603 0.000000 0.050000
vn 0.098481 0.000000 -0.017365
vn 0.064279 0.000000 -0.076604
vn -0.034202 0.000000 0.093969
vn -0.034202 0.000000 0.093969
vn -0.034202 0.000000 0.093969
vn -0.034202 0.000000 0.093969
vn 0.000000 0.000000 0.100000
vn -0.064279 0.000000 0.076604
vn -0.098481 0.000000 0.017365
vn -0.086603 0.000000 -0.050000
vn -0.034202 0.000000 -0.093969
vn 0.034202 0.000000 -0.093969
vn 0.086603 0.000000 -0.050000
vn 0.098481 0.000000 0.017365
vn 0.064279 0.000000 0.076604
vn 0.000000 0.000000 0.100000
vn 0.064279 0.000000 0.076604
vn 0.098481 0.000000 0.017365
vn 0.086603 0.000000 -0.050000
vn 0.034202 0.000000 -0.093969
vn -0.034202 0.000000 -0.093969
vn -0.086603 0.000000 -0.050000
vn -0.098481 0.000000 0.017365
vn -0.064279 0.000000 0.076604
vn 0.034202 0.000000 -0.093969
vn 0.034202 0.000000 -0.093969
vn 0.034202 0.000000 -0.093969
vn 0.034202 0.000000 -0.093969
vn 0.000000 0.100000 0.000000
vn 0.000000 0.100000 0.000000
vn 0.000000 0.100000 0.000000
vn 0.000000 0.100000 0.000000
vn 0.000000 0.100000 0.000000
vn 0.000000 0.100000 0.000000
vn 0.000000 0.100000 0.000000
vn 0.000000 0.100000 0.000000
vn 0.000000 0.100000 0.000000
vn 0.000000 0.000000 -0.100000
vn -0.040674 0.000000 -0.091355
vn -0.074314 0.000000 -0.066913
vn -0.095106 0.000000 -0.030902
vn -0.099452 0.000000 0.010453
vn -0.086603 0.000000 0.050000
vn -0.058779 0.000000 0.080902
vn -0.020791 0.000000 0.097815
vn 0.020791 0.000000 0.097815
vn 0.058779 0.000000 0.080902
vn 0.086603 0.000000 0.050000
vn 0.099452 0.000000 0.010453
vn 0.095106 0.000000 -0.030902
vn 0.074314 0.000000 -0.066913
vn 0.040674 0.000000 -0.091355
vn 0.000000 0.000000 -0.100000
vn 0.040674 0.000000 -0.091355
vn 0.074314 0.000000 -0.066913
vn 0.095106 0.000000 -0.030902
vn 0.099452 0.000000 0.010453
vn 0.086603 0.000000 0.050000
vn 0.058779 0.000000 0.080902
vn 0.020791 0.000000 0.097815
vn -0.020791 0.000000 0.097815
vn -0.058779 0.000000 0.080902
vn -0.086603 0.000000 0.050000
vn -0.099452 0.000000 0.010453
vn -0.095106 0.000000 -0.030902
vn -0.074314 0.000000 -0.066913
vn -0.040674 0.000000 -0.091355
vn 0.020791 0.000000 0.097815
vn 0.020791 0.000000 0.097815
vn 0.020791 0.000000 0.097815
vn 0.020791 0.000000 0.097815
vn 0.000000 -0.100000 0.000000
vn 0.000000 -0.100000 0.000000
vn 0.000000 -0.100000 0.000000
vn 0.000000 -0.100000 0.000000
vn 0.000000 -0.100000 0.000000
vn 0.000000 -0.100000 0.000000
vn 0.000000 -0.100000 0.000000
vn 0.000000 -0.100000 0.000000
vn 0.000000 -0.100000 0.000000
vn 0.000000 -0.100000 0.000000
vn 0.000000 -0.100000 0.000000
vn 0.000000 -0.100000 0.000000
vn 0.000000 -0.100000 0.000000
vn 0.000000 -0.100000 0.000000
vn 0.000000 -0.100000 0.000000
vn 0.000000 0.100000 0.000000
vn 0.000000 0.100000 0.000000
vn 0.000000 0.100000 0.000000
vn 0.000000 0.100000 0.000000
vn 0.000000 0.100000 0.000000
vn 0.000000 0.100000 0.000000
vn 0.000000 0.100000 0.000000
vn 0.000000 0.100000 0.000000
vn 0.000000 0.100000 0.000000
vn 0.000000 0.100000 0.000000
vn 0.000000 0.100000 0.000000
vn 0.000000 0.100000 0.000000
vn 0.000000 0.100000 0.000000
vn 0.000000 0.100000 0.000000
vn 0.000000 0.100000 0.000000
vn 0.000000 0.100000 0.000000
vn 0.000000 0.100000 0.000000
vn 0.000000 0.100000 0.000000
vn 0.000000 0.100000 0.000000
vn 0.000000 0.100000 0.000000
vn 0.000000 0.100000 0.000000
vn 0.000000 0.100000 0.000000
vn 0.000000 0.100000 0.000000
vn 0.000000 0.100000 0.000000
usemtl 239,15,15
f 40/2/2 48/18/18 36/1/1
f 36/1/1 48/18/18 35/10/10
f 36/1/1 35/10/10 20/11/11
f 48/18/18 40/2/2 54/17/17
f 54/17/17 40/2/2 46/3/3
f 54/17/17 46/3/3 44/4/4
f 54/17/17 44/4/4 52/16/16
f 52/16/16 44/4/4 38/5/5
f 52/16/16 38/5/5 42/15/15
f 42/15/15 38/5/5 26/14/14
f 26/14/14 38/5/5 30/6/6
f 26/14/14 30/6/6 16/13/13
f 16/13/13 30/6/6 24/7/7
f 16/13/13 24/7/7 14/12/12
f 14/12/12 24/7/7 22/8/8
f 14/12/12 22/8/8 28/9/9
f 14/12/12 28/9/9 20/11/11
f 20/11/11 28/9/9 36/1/1
f 48/20/20 33/28/28 35/19/19
f 35/19/19 33/28/28 19/29/29
f 35/19/19 19/29/29 20/27/27
f 20/27/27 19/29/29 13/30/30
f 20/27/27 13/30/30 14/26/26
f 14/26/26 13/30/30 15/31/31
f 14/26/26 15/31/31 16/25/25
f 16/25/25 15/31/31 25/37/37
f 16/25/25 25/38/38 26/24/24
f 26/39/39 25/32/32 41/33/33
f 26/40/40 41/33/33 42/23/23
f 42/23/23 41/33/33 51/34/34
f 42/23/23 51/34/34 52/22/22
f 52/22/22 51/34/34 53/35/35
f 52/22/22 53/35/35 54/21/21
f 54/21/21 53/35/35 47/36/36
f 54/21/21 47/36/36 48/20/20
f 48/20/20 47/36/36 33/28/28
f 39/42/42 36/50/50 34/41/41
f 34/41/41 36/50/50 28/51/51
f 34/41/41 28/51/51 27/49/49
f 27/49/49 28/51/51 22/52/52
f 27/49/49 22/52/52 21/48/48
f 21/48/48 22/52/52 24/53/53
f 21/48/48 24/53/53 23/47/47
f 23/47/47 24/53/53 30/59/59
f 23/47/47 30/60/60 29/46/46
f 29/61/61 30/54/54 38/55/55
f 29/62/62 38/55/55 37/45/45
f 37/45/45 38/55/55 44/56/56
f 37/45/45 44/56/56 43/44/44
f 43/44/44 44/56/56 46/57/57
f 43/44/44 46/57/57 45/43/43
f 45/43/43 46/57/57 40/58/58
f 45/43/43 40/58/58 39/42/42
f 39/42/42 40/58/58 36/50/50
f 27/64/64 29/67/67 34/63/63
f 34/63/63 29/67/67 37/68/68
f 34/63/63 37/68/68 39/71/71
f 39/71/71 37/68/68 43/69/69
f 39/71/71 43/69/69 45/70/70
f 21/65/65 23/66/66 27/64/64
f 27/64/64 23/66/66 29/67/67
f 11/73/73 32/87/87 31/72/72
f 31/72/72 32/87/87 56/88/88
f 31/72/72 56/88/88 55/86/86
f 55/86/86 56/88/88 60/89/89
f 55/86/86 60/89/89 59/85/85
f 59/85/85 60/89/89 64/90/90
f 59/85/85 64/90/90 63/84/84
f 63/84/84 64/90/90 66/91/91
f 63/84/84 66/91/91 65/83/83
f 65/83/83 66/91/91 62/92/92
f 65/83/83 62/92/92 61/82/82
f 61/82/82 62/92/92 58/93/93
f 61/82/82 58/93/93 57/81/81
f 57/81/81 58/93/93 50/102/102
f 57/81/81 50/103/103 49/80/80
f 49/104/104 50/94/94 18/95/95
f 49/105/105 18/95/95 17/79/79
f 17/79/79 18/95/95 10/96/96
f 17/79/79 10/96/96 9/78/78
f 9/78/78 10/96/96 6/97/97
f 9/78/78 6/97/97 5/77/77
f 5/77/77 6/97/97 2/98/98
f 5/77/77 2/98/98 1/76/76
f 1/76/76 2/98/98 4/99/99
f 1/76/76 4/99/99 3/75/75
f 3/75/75 4/99/99 8/100/100
f 3/75/75 8/100/100 7/74/74
f 7/74/74 8/100/100 12/101/101
f 7/74/74 12/101/101 11/73/73
f 11/73/73 12/101/101 32/87/87
f 31/106/106 55/107/107 11/120/120
f 11/120/120 55/107/107 59/108/108
f 11/120/120 59/108/108 7/119/119
f 7/119/119 59/108/108 63/109/109
f 7/119/119 63/109/109 3/118/118
f 3/118/118 63/109/109 65/110/110
f 3/118/118 65/110/110 1/117/117
f 1/117/117 65/110/110 61/111/111
f 1/117/117 61/111/111 5/116/116
f 5/116/116 61/111/111 57/112/112
f 5/116/116 57/112/112 9/115/115
f 9/115/115 57/112/112 49/113/113
f 9/115/115 49/113/113 17/114/114
f 47/122/122 56/144/144 33/121/121
f 33/121/121 56/144/144 32/130/130
f 33/121/121 32/130/130 12/131/131
f 53/123/123 64/142/142 47/122/122
f 47/122/122 64/142/142 60/143/143
f 47/122/122 60/143/143 56/144/144
f 64/142/142 53/123/123 66/141/141
f 66/141/141 53/123/123 51/124/124
f 66/141/141 51/124/124 62/140/140
f 62/140/140 51/124/124 58/139/139
f 58/139/139 51/124/124 41/125/125
f 58/139/139 41/125/125 50/138/138
f 50/138/138 41/125/125 18/137/137
f 18/137/137 41/125/125 25/126/126
f 18/137/137 25/126/126 10/136/136
f 10/136/136 25/126/126 15/127/127
f 10/136/136 15/127/127 6/135/135
f 6/135/135 15/127/127 2/134/134
f 2/134/134 15/127/127 13/128/128
f 2/134/134 13/128/128 4/133/133
f 4/133/133 13/128/128 19/129/129
f 4/133/133 19/129/129 8/132/132
f 8/132/132 19/129/129 12/131/131
f 12/131/131 19/129/129 33/121/121

# 66 vertices
# 144 texture params
# 144 normals
# 128 facets

# 1 groups
