# WaveFront *.obj file (generated by Autodesk ATF)

mtllib OJB_Solid4.mtl

o Solid1:3

v -32.980468 7.421274 22.792282
v -32.980468 7.421274 23.392282
v -32.980468 43.382211 22.792282
v -32.980468 43.382211 23.392282
v 32.980468 7.421274 22.792282
v 32.980468 7.421274 23.392282
v 32.980468 43.382211 22.792282
v 32.980468 43.382211 23.392282
vt 0.000000 0.000000 0.000000
vt 6.596094 0.000000 0.000000
vt 6.596094 0.060000 0.000000
vt 0.000000 0.060000 0.000000
vt 0.000000 0.000000 0.000000
vt 3.596094 0.000000 0.000000
vt 3.596094 0.060000 0.000000
vt 0.000000 0.060000 0.000000
vt 0.000000 0.000000 0.000000
vt 6.596094 0.000000 0.000000
vt 6.596094 0.060000 0.000000
vt 0.000000 0.060000 0.000000
vt 0.000000 0.000000 0.000000
vt 3.596094 0.000000 0.000000
vt 3.596094 0.060000 0.000000
vt 0.000000 0.060000 0.000000
vt 3.298047 -1.798047 0.000000
vt 3.298047 1.798047 0.000000
vt -3.298047 1.798047 0.000000
vt -3.298047 -1.798047 0.000000
vt -3.298047 1.798047 0.000000
vt -3.298047 -1.798047 0.000000
vt 3.298047 -1.798047 0.000000
vt 3.298047 1.798047 0.000000
vn 0.000000 0.100000 0.000000
vn 0.000000 0.100000 0.000000
vn 0.000000 0.100000 0.000000
vn 0.000000 0.100000 0.000000
vn 0.100000 0.000000 0.000000
vn 0.100000 0.000000 0.000000
vn 0.100000 0.000000 0.000000
vn 0.100000 0.000000 0.000000
vn 0.000000 -0.100000 0.000000
vn 0.000000 -0.100000 0.000000
vn 0.000000 -0.100000 0.000000
vn 0.000000 -0.100000 0.000000
vn -0.100000 0.000000 0.000000
vn -0.100000 0.000000 0.000000
vn -0.100000 0.000000 0.000000
vn -0.100000 0.000000 0.000000
vn 0.000000 0.000000 -0.100000
vn 0.000000 0.000000 -0.100000
vn 0.000000 0.000000 -0.100000
vn 0.000000 0.000000 -0.100000
vn 0.000000 0.000000 0.100000
vn 0.000000 0.000000 0.100000
vn 0.000000 0.000000 0.100000
vn 0.000000 0.000000 0.100000
usemtl 102,102,102
f 7/1/1 3/2/2 8/4/4
f 8/4/4 3/2/2 4/3/3
f 5/5/5 7/6/6 6/8/8
f 6/8/8 7/6/6 8/7/7
f 1/9/9 5/10/10 2/12/12
f 2/12/12 5/10/10 6/11/11
f 3/13/13 1/14/14 4/16/16
f 4/16/16 1/14/14 2/15/15
f 3/18/18 7/19/19 1/17/17
f 1/17/17 7/19/19 5/20/20
f 2/22/22 6/23/23 4/21/21
f 4/21/21 6/23/23 8/24/24

# 8 vertices
# 24 texture params
# 24 normals
# 12 facets

# 1 groups
